HIERARCHY
ROOT Beta:Hips
{
	OFFSET 0.00 0.00 0.00
	CHANNELS 6 Xposition Yposition Zposition Yrotation Xrotation Zrotation
	JOINT Beta:Spine
	{
		OFFSET	0.0000	9.2263	1.5771
		CHANNELS 3 Xrotation Yrotation Zrotation
		JOINT Beta:Spine1
		{
			OFFSET	0.0000	16.2540	-0.1656
			CHANNELS 3 Xrotation Yrotation Zrotation
			JOINT Beta:Spine2
			{
				OFFSET	0.0000	13.6396	-1.2923
				CHANNELS 3 Xrotation Yrotation Zrotation
				JOINT Beta:Neck
				{
					OFFSET	0.0000	13.8774	-4.3542
					CHANNELS 3 Xrotation Yrotation Zrotation
					JOINT Beta:Neck1
					{
						OFFSET	0.0000	4.3400	0.9269
						CHANNELS 3 Xrotation Yrotation Zrotation
						JOINT Beta:Head
						{
							OFFSET	0.0000	4.0266	0.8585
							CHANNELS 3 Xrotation Yrotation Zrotation
							End Site
							{
								OFFSET 0.0000 23.0297 0.1231
							}
						}
					}
				}
				JOINT Beta:LeftShoulder
				{
					OFFSET	6.1442	10.1870	-3.7932
					CHANNELS 3 Zrotation Xrotation Yrotation
					JOINT Beta:LeftArm
					{
						OFFSET	12.3191	-1.1130	-1.7935
						CHANNELS 3 Zrotation Xrotation Yrotation
						JOINT Beta:LeftForeArm
						{
							OFFSET	27.6870	0.0000	0.0000
							CHANNELS 3 Xrotation Zrotation Yrotation
							JOINT Beta:LeftHand
							{
								OFFSET	27.8738	0.0000	0.0000
								CHANNELS 3 Zrotation Yrotation Xrotation
								JOINT Beta:LeftHandThumb1
								{
									OFFSET	2.3785	-1.0029	2.6209
									CHANNELS 3 Zrotation Xrotation Yrotation
									JOINT Beta:LeftHandThumb2
									{
										OFFSET	3.3624	-1.0029	2.8398
										CHANNELS 3 Zrotation Xrotation Yrotation
										JOINT Beta:LeftHandThumb3
										{
											OFFSET	4.5018	-1.3445	2.1783
											CHANNELS 3 Zrotation Xrotation Yrotation
											End Site
											{
												OFFSET 2.6000 -1.0000 1.0000
											}
										}
									}
								}
								JOINT Beta:LeftHandMiddle1
								{
									OFFSET	10.4639	0.6148	0.4298
									CHANNELS 3 Zrotation Xrotation Yrotation
									JOINT Beta:LeftHandMiddle2
									{
										OFFSET	5.7921	0.0000	0.0000
										CHANNELS 3 Zrotation Xrotation Yrotation
										JOINT Beta:LeftHandMiddle3
										{
											OFFSET	3.7132	0.0000	0.0000
											CHANNELS 3 Zrotation Xrotation Yrotation
											End Site
											{
												OFFSET 2.3000 0.0000 0.0000
											}
										}
									}
								}
								JOINT Beta:LeftHandIndex1
								{
									OFFSET	10.3945	0.6148	2.7055
									CHANNELS 3 Zrotation Xrotation Yrotation
									JOINT Beta:LeftHandIndex2
									{
										OFFSET	5.5493	0.0000	0.0000
										CHANNELS 3 Zrotation Xrotation Yrotation
										JOINT Beta:LeftHandIndex3
										{
											OFFSET	3.3911	0.0000	0.0000
											CHANNELS 3 Zrotation Xrotation Yrotation
											End Site
											{
												OFFSET 2.5000 0.0000 0.0000
											}
										}
									}
								}
								JOINT Beta:LeftHandRing1
								{
									OFFSET	10.3252	0.3211	-1.8755
									CHANNELS 3 Zrotation Xrotation Yrotation
									JOINT Beta:LeftHandRing2
									{
										OFFSET	5.4452	0.0000	0.0000
										CHANNELS 3 Zrotation Xrotation Yrotation
										JOINT Beta:LeftHandRing3
										{
											OFFSET	3.7132	0.0000	0.0000
											CHANNELS 3 Zrotation Xrotation Yrotation
											End Site
											{
												OFFSET 2.0000 0.0000 0.0000
											}
										}
									}
								}
								JOINT Beta:LeftHandPinky1
								{
									OFFSET	10.0130	-0.0783	-3.9671
									CHANNELS 3 Zrotation Xrotation Yrotation
									JOINT Beta:LeftHandPinky2
									{
										OFFSET	3.6763	0.0000	0.0000
										CHANNELS 3 Zrotation Xrotation Yrotation
										JOINT Beta:LeftHandPinky3
										{
											OFFSET	2.8113	0.0000	0.0000
											CHANNELS 3 Zrotation Xrotation Yrotation
											End Site
											{
												OFFSET 2.9000 0.0000 0.0000
											}
										}
									}
								}
							}
						}
					}
				}
				JOINT Beta:RightShoulder
				{
					OFFSET	-6.1402	10.1870	-3.7932
					CHANNELS 3 Zrotation Xrotation Yrotation
					JOINT Beta:RightArm
					{
						OFFSET	-12.3231	-1.1130	-1.7935
						CHANNELS 3 Zrotation Xrotation Yrotation
						JOINT Beta:RightForeArm
						{
							OFFSET	-27.6870	0.0000	0.0000
							CHANNELS 3 Xrotation Zrotation Yrotation
							JOINT Beta:RightHand
							{
								OFFSET	-27.8738	0.0000	0.0000
								CHANNELS 3 Zrotation Yrotation Xrotation
								JOINT Beta:RightHandThumb1
								{
									OFFSET	-2.5178	-0.9367	2.5137
									CHANNELS 3 Zrotation Xrotation Yrotation
									JOINT Beta:RightHandThumb2
									{
										OFFSET	-3.2638	-1.0870	2.9669
										CHANNELS 3 Zrotation Xrotation Yrotation
										JOINT Beta:RightHandThumb3
										{
											OFFSET	-4.4165	-1.3703	2.1350
											CHANNELS 3 Zrotation Xrotation Yrotation
											End Site
											{
												OFFSET -2.6000 -1.0000 1.0000
											}
										}
									}
								}
								JOINT Beta:RightHandIndex1
								{
									OFFSET	-10.4665	0.4896	2.7120
									CHANNELS 3 Zrotation Xrotation Yrotation
									JOINT Beta:RightHandIndex2
									{
										OFFSET	-5.3768	0.0000	0.0000
										CHANNELS 3 Zrotation Xrotation Yrotation
										JOINT Beta:RightHandIndex3
										{
											OFFSET	-3.3855	0.0000	0.0000
											CHANNELS 3 Zrotation Xrotation Yrotation
											End Site
											{
												OFFSET -2.6000 0.0000 0.0000
											}
										}
									}
								}
								JOINT Beta:RightHandMiddle1
								{
									OFFSET	-10.7596	0.4896	0.4278
									CHANNELS 3 Zrotation Xrotation Yrotation
									JOINT Beta:RightHandMiddle2
									{
										OFFSET	-5.6168	0.0000	0.0000
										CHANNELS 3 Zrotation Xrotation Yrotation
										JOINT Beta:RightHandMiddle3
										{
											OFFSET	-3.7364	0.0000	0.0000
											CHANNELS 3 Zrotation Xrotation Yrotation
											End Site
											{
												OFFSET -2.3000 0.0000 0.0000
											}
										}
									}
								}
								JOINT Beta:RightHandRing1
								{
									OFFSET	-10.4702	0.3879	-1.9363
									CHANNELS 3 Zrotation Xrotation Yrotation
									JOINT Beta:RightHandRing2
									{
										OFFSET	-5.4013	0.0000	0.0000
										CHANNELS 3 Zrotation Xrotation Yrotation
										JOINT Beta:RightHandRing3
										{
											OFFSET	-3.3916	0.0000	0.0000
											CHANNELS 3 Zrotation Xrotation Yrotation
											End Site
											{
												OFFSET -2.2000 0.0000 0.0000
											}
										}
									}
								}
								JOINT Beta:RightHandPinky1
								{
									OFFSET	-9.9715	-0.1191	-3.9540
									CHANNELS 3 Zrotation Xrotation Yrotation
									JOINT Beta:RightHandPinky2
									{
										OFFSET	-3.6528	0.0000	0.0000
										CHANNELS 3 Zrotation Xrotation Yrotation
										JOINT Beta:RightHandPinky3
										{
											OFFSET	-2.7820	0.0000	0.0000
											CHANNELS 3 Zrotation Xrotation Yrotation
											End Site
											{
												OFFSET -2.9000 0.0000 0.0000
											}
										}
									}
								}
							}
						}
					}
				}
			}
		}
	}
	JOINT Beta:LeftUpLeg
	{
		OFFSET	9.6338	-3.2733	0.0000
		CHANNELS 3 Xrotation Yrotation Zrotation
		JOINT Beta:LeftLeg
		{
			OFFSET	0.0000	-41.7300	-1.7300
			CHANNELS 3 Xrotation Yrotation Zrotation
			JOINT Beta:LeftFoot
			{
				OFFSET	0.0126	-39.1900	-0.8477
				CHANNELS 3 Xrotation Yrotation Zrotation
				JOINT Beta:LeftToeBase
				{
					OFFSET	-0.1833	-12.1931	8.2823
					CHANNELS 3 Xrotation Yrotation Zrotation
					End Site
					{
						OFFSET 0.0000 0.0000 10.1681
					}
				}
			}
		}
	}
	JOINT Beta:RightUpLeg
	{
		OFFSET	-9.6338	-3.2733	0.0000
		CHANNELS 3 Xrotation Yrotation Zrotation
		JOINT Beta:RightLeg
		{
			OFFSET	0.0000	-41.7300	-1.7300
			CHANNELS 3 Xrotation Yrotation Zrotation
			JOINT Beta:RightFoot
			{
				OFFSET	0.0126	-39.1900	-0.8477
				CHANNELS 3 Xrotation Yrotation Zrotation
				JOINT Beta:RightToeBase
				{
					OFFSET	-0.1833	-12.1931	8.2823
					CHANNELS 3 Xrotation Yrotation Zrotation
					End Site
					{
						OFFSET 0.0032 0.0000 10.1681
					}
				}
			}
		}
	}
}
MOTION
Frames: 4
Frame Time: 0.0333333
-1.4564 90.7459 25.6309 83.9250 -7.4644 -9.2594 20.5658 9.9969 4.9153 -1.7339 0.8234 3.2241 -1.7798 1.0138 3.6937 0.3094 -11.9286 -6.3667 -0.0000 0.0000 -0.0000 5.4273 -67.9223 11.8727 -1.5252 -0.0543 3.7324 0.9955 -71.7059 11.6969 0.0000 0.0000 -84.7896 -0.3785 -25.8182 -29.0715 -3.7562 -6.6686 -16.4558 -0.9324 -2.0170 -8.5597 0.4594 0.2891 1.0660 -37.9018 -0.0000 -5.3857 -26.2094 0.0000 0.0000 -8.1797 0.0000 -0.0000 -44.4984 0.0000 -15.4355 -13.3942 0.0000 0.0000 -6.1546 0.0000 0.0000 -40.5691 -0.0000 -1.9007 -28.4313 0.0000 -0.0000 -8.1254 0.0000 -0.0000 -53.0339 -0.0000 -4.6097 -17.0564 0.0000 -0.0000 -5.6939 -0.0000 0.0000 29.4223 1.4537 0.6447 42.5377 -25.8207 26.5007 -0.0000 0.0000 22.3586 -30.6227 -7.5336 -82.6516 -3.7056 3.8203 -7.0075 0.9839 -1.7452 9.4223 -1.4427 -1.6322 4.0335 13.2905 0.0000 8.7083 23.3421 -0.0000 0.0000 5.7060 -0.0000 0.0000 32.8570 0.0000 2.8291 20.1286 0.0000 0.0000 5.5739 1.7956 0.0000 55.0334 -0.0000 -2.4790 20.0744 0.0000 0.0000 1.9984 2.0870 0.0000 77.1572 -0.0000 -8.2775 43.4218 0.0000 -0.0000 -5.6751 0.0000 0.0000 -28.8089 10.5069 25.6033 47.6312 -1.1389 -6.9518 -17.6153 -4.1324 -2.6978 -3.5503 -0.0000 -0.0000 -10.0563 -7.4529 -2.1626 38.0366 -9.4966 2.1939 -18.7732 -18.7241 16.6671 10.3728 0.0256 -1.8627 
-1.5698 90.6271 26.5485 83.9334 -7.5922 -9.2727 20.4885 10.4626 6.3978 -1.6237 0.7629 3.3940 -1.6872 0.9911 3.9788 1.0840 -12.0160 -6.2843 -0.0000 0.0000 -0.0000 9.5591 -68.5115 15.1431 0.3550 0.0122 2.9930 6.1647 -60.7848 11.8040 -0.0000 -0.0000 -77.4887 -3.6321 -25.4961 -19.1955 -6.2599 -6.0428 -19.1392 -0.9345 -2.0218 -8.5581 0.8826 -0.2065 -0.2308 -38.4800 0.0000 -5.4456 -26.3869 0.0000 -0.0000 -8.1798 -0.0000 0.0000 -45.9706 -0.0000 -15.7708 -14.2304 0.0000 -0.0000 -6.1206 -0.0000 0.0000 -40.3748 0.0000 -1.9117 -27.4793 0.0000 -0.0000 -8.0971 0.0000 -0.0000 -52.0341 0.0000 -4.4967 -15.1385 0.0000 -0.0000 -5.7370 -0.0000 0.0000 27.7601 1.4228 0.7170 33.3617 -20.6376 25.0140 -0.0000 0.0000 20.8451 -26.1239 -17.6816 -86.7628 -6.3537 -0.7048 -6.8975 0.9915 -1.7454 9.4214 -1.4422 -1.5079 3.7214 9.0039 -0.0000 7.3067 12.0229 -0.0000 -0.0000 2.1131 0.0000 0.0000 29.9677 -0.0000 2.0033 13.0064 0.0000 0.0000 2.2765 0.9436 0.0000 53.2376 -0.0000 -2.9135 16.7918 0.0000 0.0000 0.6263 1.4080 -0.0000 75.6984 0.0000 -8.4269 43.1312 0.0000 0.0000 -5.4434 -0.0000 -0.0000 -28.6789 9.7321 24.8761 47.4104 -1.8672 -5.2775 -16.6498 -3.1823 -1.8071 -3.5382 0.0000 0.0000 -10.1097 -7.1785 -1.4348 38.4906 -9.4889 1.2631 -17.8051 -18.2847 19.1207 8.4532 0.1483 -4.4726 
-1.6305 90.4990 26.8746 82.5966 -7.7443 -9.3537 20.5235 10.6885 7.3161 -1.4276 0.7520 3.4304 -1.4900 0.9893 4.0268 1.7628 -12.0218 -6.4140 -0.0000 0.0000 -0.0000 12.2219 -68.7562 16.7810 1.4043 0.0872 2.2406 11.9990 -52.4035 13.3576 -0.0000 -0.0000 -70.9543 -2.8602 -26.3236 -15.8181 -8.6462 -5.1865 -21.3049 -0.9394 -2.0325 -8.5546 1.2487 -0.6452 -1.3854 -38.6420 -0.0000 -5.4678 -26.0804 0.0000 -0.0000 -8.1490 -0.0000 0.0000 -46.6527 -0.0000 -15.8874 -14.4219 0.0000 -0.0000 -6.1064 -0.0000 -0.0000 -40.0466 -0.0000 -1.9202 -26.3607 -0.0000 0.0000 -8.0662 0.0000 0.0000 -51.1474 -0.0000 -4.4728 -13.2872 0.0000 -0.0000 -5.7803 0.0000 -0.0000 25.9409 1.2765 0.4768 27.3646 -20.7854 24.4366 0.0000 -0.0000 20.5577 -24.6208 -22.9645 -87.1270 -9.0282 -5.0684 -6.8008 1.0169 -1.7456 9.4187 -1.4919 -1.4365 3.5010 2.2368 -0.0001 6.0266 4.1325 0.0000 0.0000 -0.4731 -0.0000 -0.0000 25.5878 -0.0000 1.3494 7.7228 0.0000 0.0000 -0.1285 0.3428 0.0000 51.2044 -0.0000 -3.0846 14.5099 0.0000 0.0000 -0.3609 0.9409 -0.0000 74.2281 0.0000 -8.1622 43.3056 -0.0000 0.0000 -5.2965 0.0000 0.0000 -28.9771 10.1716 24.8078 47.4755 -2.1421 -3.5071 -14.4714 -2.5183 -0.8350 -3.9978 -0.0000 0.0000 -10.6245 -6.2498 -0.8505 39.3138 -9.4338 1.0166 -17.3423 -17.4640 20.6489 7.5012 0.2760 -6.0983 
-1.5891 90.3546 26.6715 79.9139 -7.9908 -9.5276 20.4649 10.2546 7.5708 -1.1116 0.7503 3.3650 -1.1628 0.9646 3.9573 1.9208 -11.8280 -6.8399 -0.0000 0.0000 -0.0000 11.9041 -68.1978 15.7494 1.8215 0.1077 2.0591 14.3101 -48.1935 12.6141 0.0000 -0.0000 -65.3458 2.8037 -27.6375 -20.8294 -10.3504 -3.9823 -21.9105 -0.9415 -2.0372 -8.5517 1.3757 -0.8186 -1.8401 -37.9081 0.0000 -5.4221 -24.9292 0.0000 -0.0000 -8.0664 -0.0000 0.0000 -45.5509 -0.0000 -15.6049 -13.4000 -0.0000 -0.0000 -6.1330 0.0000 0.0000 -39.5143 0.0000 -1.9263 -25.1896 0.0000 0.0000 -8.0374 0.0000 -0.0000 -50.6908 0.0000 -4.6184 -11.9927 0.0000 -0.0000 -5.8139 0.0000 -0.0000 23.5236 1.0653 0.0628 25.7876 -25.7267 25.3005 -0.0000 0.0000 21.1332 -27.2581 -22.7708 -83.7401 -11.9720 -7.7715 -6.7853 1.0251 -1.7479 9.4171 -1.5993 -1.4669 3.5185 -7.0678 -0.0001 5.2046 1.7702 0.0000 -0.0000 -2.3053 0.0000 0.0000 19.5305 0.0000 1.1351 5.3977 -0.0000 -0.0000 -1.6078 0.1111 0.0000 48.7422 0.0000 -2.7320 13.8776 -0.0000 -0.0000 -0.9660 0.6311 0.0000 72.6810 0.0000 -7.1702 44.2512 0.0000 -0.0000 -5.3451 0.0000 0.0000 -29.0122 10.8966 25.3594 48.0442 -1.9235 -2.1415 -14.0252 -0.8400 -1.0287 -4.1588 0.0000 -0.0000 -11.5011 -5.1024 -0.2424 40.3455 -9.5063 1.0206 -17.2208 -15.7790 20.9088 7.1983 0.3143 -6.5074 
